<svg width="40" height="40" viewBox="0 0 40 40" fill="none" xmlns="http://www.w3.org/2000/svg">
<path d="M33.2397 20C33.2397 20.498 33.0599 20.9223 32.7002 21.2728L23.6108 30.3345C23.2511 30.6942 22.8499 30.874 22.4072 30.874C21.9 30.874 21.4895 30.7172 21.1759 30.4036C20.8624 30.0901 20.7056 29.7027 20.7056 29.2415C20.7056 28.9833 20.7517 28.7527 20.8439 28.5498C20.9454 28.3469 21.0745 28.167 21.2313 28.0103L24.3302 24.8836L29.2415 20.4012L29.8779 21.4388L24.8421 21.7293H8.51725C7.99154 21.7293 7.56727 21.5725 7.24447 21.259C6.92166 20.9361 6.76025 20.5165 6.76025 20C6.76025 19.4927 6.92166 19.0823 7.24447 18.7687C7.56727 18.4459 7.99154 18.2845 8.51725 18.2845H24.8421L29.8779 18.5612L29.2415 19.6265L24.3302 15.1164L21.2313 11.9897C21.0745 11.833 20.9454 11.6531 20.8439 11.4502C20.7517 11.2381 20.7056 11.0075 20.7056 10.7585C20.7056 10.2973 20.8624 9.90994 21.1759 9.59635C21.4895 9.28277 21.9 9.12598 22.4072 9.12598C22.6194 9.12598 22.8269 9.17209 23.0298 9.26432C23.2419 9.34733 23.4448 9.48568 23.6385 9.67936L32.7002 18.7272C33.0599 19.0777 33.2397 19.502 33.2397 20Z" fill="white"/>
</svg>
