<svg width="40" height="40" viewBox="0 0 40 40" fill="none" xmlns="http://www.w3.org/2000/svg">
<path d="M6.76025 20C6.76025 20.498 6.9401 20.9223 7.2998 21.2728L16.3892 30.3345C16.7489 30.6942 17.1501 30.874 17.5928 30.874C18.1 30.874 18.5105 30.7172 18.8241 30.4036C19.1376 30.0901 19.2944 29.7027 19.2944 29.2415C19.2944 28.9833 19.2483 28.7527 19.1561 28.5498C19.0546 28.3469 18.9255 28.167 18.7687 28.0103L15.6698 24.8836L10.7585 20.4012L10.1221 21.4388L15.1579 21.7293H31.4827C32.0085 21.7293 32.4327 21.5725 32.7555 21.259C33.0783 20.9361 33.2397 20.5165 33.2397 20C33.2397 19.4927 33.0783 19.0823 32.7555 18.7687C32.4327 18.4459 32.0085 18.2845 31.4827 18.2845H15.1579L10.1221 18.5612L10.7585 19.6265L15.6698 15.1164L18.7687 11.9897C18.9255 11.833 19.0546 11.6531 19.1561 11.4502C19.2483 11.2381 19.2944 11.0075 19.2944 10.7585C19.2944 10.2973 19.1376 9.90994 18.8241 9.59635C18.5105 9.28277 18.1 9.12598 17.5928 9.12598C17.3806 9.12598 17.1731 9.17209 16.9702 9.26432C16.7581 9.34733 16.5552 9.48568 16.3615 9.67936L7.2998 18.7272C6.9401 19.0777 6.76025 19.502 6.76025 20Z" fill="white"/>
</svg>
